<svg width="70" height="70" viewBox="0 0 70 70" fill="none" xmlns="http://www.w3.org/2000/svg">
<g filter="url(#filter0_i_354_67)">
<circle cx="35" cy="35" r="34.5" fill="url(#paint0_linear_354_67)" stroke="white"/>
<path fill-rule="evenodd" clip-rule="evenodd" d="M51.4415 26.4984C51.1053 26.622 50.7417 26.6452 50.3931 26.5654C50.0445 26.4855 49.7252 26.3059 49.4723 26.0473L48.0841 24.6221L37.5289 35.4388C37.3538 35.6184 37.1458 35.7609 36.9169 35.8581C36.6879 35.9553 36.4426 36.0053 36.1948 36.0053C35.947 36.0053 35.7016 35.9553 35.4727 35.8581C35.2438 35.7609 35.0358 35.6184 34.8606 35.4388L30.8342 31.3126L21.2423 41.1421C21.0682 41.3267 20.86 41.4738 20.6298 41.575C20.3997 41.6762 20.1521 41.7294 19.9017 41.7315C19.6512 41.7336 19.4029 41.6846 19.1711 41.5873C18.9394 41.49 18.7288 41.3464 18.5518 41.1648C18.3748 40.9832 18.2349 40.7673 18.1401 40.5298C18.0454 40.2922 17.9978 40.0376 18.0001 39.781C18.0024 39.5243 18.0545 39.2707 18.1535 39.0349C18.2524 38.7992 18.3962 38.5859 18.5765 38.4077L29.4963 27.2097C29.6714 27.0301 29.8794 26.8876 30.1083 26.7904C30.3373 26.6931 30.5826 26.6431 30.8304 26.6431C31.0782 26.6431 31.3236 26.6931 31.5525 26.7904C31.7815 26.8876 31.9894 27.0301 32.1646 27.2097L36.1935 31.3384L45.4157 21.8877L44.0275 20.4651C43.7747 20.2063 43.5988 19.8793 43.5203 19.5221C43.4418 19.1649 43.4639 18.7922 43.5841 18.4474C43.7042 18.1026 43.9175 17.7999 44.199 17.5744C44.4805 17.349 44.8188 17.2101 45.1743 17.174C47.4704 16.942 48.7908 16.942 51.0014 17.174C51.4328 17.2197 51.8357 17.4164 52.1421 17.7309C52.4486 18.0454 52.6399 18.4585 52.6839 18.9007C52.9127 21.1635 52.9102 22.5191 52.6839 24.8696C52.6485 25.2337 52.513 25.5801 52.293 25.8685C52.0731 26.1568 51.7778 26.3752 51.4415 26.4984ZM47.3598 30.3848C47.6448 30.1016 48.0096 29.9178 48.4025 29.8595C48.7953 29.8012 49.1961 29.8714 49.5478 30.0601L51.9923 31.3745C52.3086 31.5451 52.5711 31.8042 52.7492 32.1218C52.9273 32.4394 53.0136 32.8023 52.9982 33.1682L52.3041 50.147C52.284 50.6456 52.0764 51.117 51.7248 51.4624C51.3733 51.8078 50.905 52.0004 50.4179 52H45.4585C45.2918 52 45.1318 51.9321 45.0139 51.8113C44.896 51.6905 44.8298 51.5266 44.8298 51.3557V33.1708C44.8296 33.0843 44.8464 32.9986 44.8793 32.9189C44.9121 32.8392 44.9603 32.7671 45.0209 32.7069L47.3598 30.3848ZM41.6861 51.3557C41.6861 51.5266 41.6199 51.6905 41.502 51.8113C41.3841 51.9321 41.2241 52 41.0574 52H31.6264C31.4597 52 31.2997 51.9321 31.1818 51.8113C31.0639 51.6905 30.9977 51.5266 30.9977 51.3557V36.3717C30.9977 36.3202 31.0354 36.2789 31.0857 36.2841C31.4956 36.3047 31.898 36.4645 32.23 36.7609L36.367 40.4824C36.4857 40.5894 36.6393 40.6467 36.7973 40.6428C36.9552 40.639 37.106 40.5744 37.2196 40.4618L40.6198 37.0804C40.7086 36.9923 40.8207 36.9329 40.9422 36.9097C41.0638 36.8865 41.1893 36.9005 41.3031 36.95C41.4169 36.9995 41.5139 37.0823 41.582 37.188C41.6502 37.2937 41.6864 37.4177 41.6861 37.5443V51.3557ZM26.7751 39.8535L18.9537 48.0388C18.6075 48.3999 18.4134 48.8857 18.413 49.3918V50.0671C18.413 51.134 19.258 52 20.2992 52H27.2253C27.392 52 27.552 51.9321 27.6699 51.8113C27.7878 51.6905 27.854 51.5266 27.854 51.3557V40.3046C27.8543 40.1763 27.8172 40.0509 27.7475 39.9444C27.6778 39.8379 27.5786 39.7552 27.4628 39.7067C27.3469 39.6583 27.2196 39.6464 27.0971 39.6726C26.9746 39.6987 26.8625 39.7617 26.7751 39.8535Z" fill="#FAFEFF"/>
</g>
<defs>
<filter id="filter0_i_354_67" x="0" y="0" width="70" height="74" filterUnits="userSpaceOnUse" color-interpolation-filters="sRGB">
<feFlood flood-opacity="0" result="BackgroundImageFix"/>
<feBlend mode="normal" in="SourceGraphic" in2="BackgroundImageFix" result="shape"/>
<feColorMatrix in="SourceAlpha" type="matrix" values="0 0 0 0 0 0 0 0 0 0 0 0 0 0 0 0 0 0 127 0" result="hardAlpha"/>
<feOffset dy="4"/>
<feGaussianBlur stdDeviation="2"/>
<feComposite in2="hardAlpha" operator="arithmetic" k2="-1" k3="1"/>
<feColorMatrix type="matrix" values="0 0 0 0 0.564102 0 0 0 0 0.564102 0 0 0 0 0.564102 0 0 0 0.25 0"/>
<feBlend mode="normal" in2="shape" result="effect1_innerShadow_354_67"/>
</filter>
<linearGradient id="paint0_linear_354_67" x1="35" y1="0" x2="35" y2="70" gradientUnits="userSpaceOnUse">
<stop stop-color="#47DFFA"/>
<stop offset="1" stop-color="#00879F"/>
</linearGradient>
</defs>
</svg>
