<svg width="31" height="31" viewBox="0 0 31 31" fill="none" xmlns="http://www.w3.org/2000/svg">
<circle cx="15.5" cy="15.5" r="15.5" fill="url(#paint0_linear_97_227)"/>
<g clip-path="url(#clip0_97_227)">
<path d="M25.7051 10.8737C26.0195 11.2943 26.0903 11.7702 25.9173 12.3014L22.6744 22.3288C22.525 22.801 22.2243 23.1976 21.7723 23.5186C21.3202 23.8395 20.8387 24 20.3277 24H9.44328C8.83794 24 8.25421 23.8026 7.6921 23.4079C7.13 23.0131 6.73888 22.528 6.51876 21.9525C6.33008 21.4581 6.32221 20.9896 6.49517 20.5469C6.49517 20.5174 6.50696 20.4178 6.53055 20.248C6.55413 20.0783 6.56986 19.9418 6.57772 19.8385C6.58558 19.7795 6.57379 19.7002 6.54234 19.6006C6.51089 19.501 6.4991 19.429 6.50696 19.3848C6.52269 19.3036 6.55413 19.2261 6.6013 19.1523C6.64847 19.0786 6.71333 18.9919 6.79588 18.8923C6.87843 18.7926 6.94328 18.7059 6.99045 18.6322C7.17127 18.3518 7.34816 18.0142 7.52111 17.6195C7.69407 17.2247 7.81199 16.8872 7.87489 16.6068C7.89847 16.533 7.90044 16.4223 7.88078 16.2747C7.86113 16.1272 7.85916 16.0239 7.87489 15.9648C7.89847 15.8837 7.9653 15.7804 8.07536 15.6549C8.18542 15.5295 8.25225 15.4447 8.27583 15.4004C8.44093 15.1348 8.60602 14.7954 8.77111 14.3822C8.93621 13.969 9.03448 13.6369 9.06593 13.3861C9.07379 13.3197 9.06396 13.2016 9.03644 13.0319C9.00893 12.8622 9.01089 12.7589 9.04234 12.722C9.07379 12.6261 9.16027 12.5136 9.30177 12.3844C9.44328 12.2553 9.52976 12.1723 9.56121 12.1354C9.71058 11.9436 9.87764 11.6318 10.0624 11.2002C10.2471 10.7686 10.3552 10.4125 10.3867 10.1322C10.3945 10.0731 10.3827 9.97906 10.3513 9.84993C10.3199 9.72081 10.312 9.62305 10.3277 9.55664C10.3434 9.49761 10.3788 9.43121 10.4338 9.35742C10.4889 9.28364 10.5596 9.19878 10.6461 9.10286C10.7326 9.00694 10.7994 8.92947 10.8466 8.87044C10.9095 8.7819 10.9743 8.66938 11.0412 8.53288C11.108 8.39638 11.1669 8.26725 11.218 8.14551C11.2691 8.02376 11.332 7.89095 11.4067 7.74707C11.4814 7.60319 11.5581 7.48513 11.6367 7.3929C11.7153 7.30067 11.8195 7.21398 11.9492 7.13281C12.0789 7.05165 12.2204 7.00922 12.3737 7.00553C12.527 7.00184 12.7137 7.02214 12.9339 7.06641L12.9221 7.09961C13.2208 7.0332 13.4213 7 13.5235 7H22.4975C23.0793 7 23.5274 7.2066 23.8419 7.61979C24.1563 8.03299 24.2271 8.51259 24.0541 9.05859L20.823 19.0859C20.54 19.964 20.2589 20.5303 19.9798 20.7848C19.7008 21.0394 19.1956 21.1667 18.4645 21.1667H8.21687C8.0046 21.1667 7.85523 21.222 7.76876 21.3327C7.68228 21.4507 7.67835 21.6094 7.75696 21.8086C7.94564 22.3251 8.51168 22.5833 9.45508 22.5833H20.3395C20.5675 22.5833 20.7876 22.5261 20.9999 22.4118C21.2122 22.2974 21.3497 22.1443 21.4126 21.9525L24.9504 11.0286C25.0054 10.8663 25.025 10.656 25.0093 10.3978C25.3081 10.5085 25.54 10.6671 25.7051 10.8737ZM13.1579 10.8958C13.1265 10.9918 13.1343 11.0748 13.1815 11.1449C13.2287 11.215 13.3073 11.25 13.4173 11.25H20.5872C20.6894 11.25 20.7896 11.215 20.8879 11.1449C20.9861 11.0748 21.051 10.9918 21.0824 10.8958L21.3301 10.1875C21.3615 10.0916 21.3537 10.0086 21.3065 9.93848C21.2593 9.86838 21.1807 9.83333 21.0706 9.83333H13.9008C13.7986 9.83333 13.6984 9.86838 13.6001 9.93848C13.5019 10.0086 13.437 10.0916 13.4055 10.1875L13.1579 10.8958ZM12.1791 13.7292C12.1477 13.8251 12.1555 13.9081 12.2027 13.9782C12.2499 14.0483 12.3285 14.0833 12.4386 14.0833H19.6084C19.7106 14.0833 19.8108 14.0483 19.9091 13.9782C20.0074 13.9081 20.0722 13.8251 20.1037 13.7292L20.3513 13.0208C20.3827 12.9249 20.3749 12.8419 20.3277 12.7718C20.2805 12.7017 20.2019 12.6667 20.0919 12.6667H12.9221C12.8199 12.6667 12.7196 12.7017 12.6214 12.7718C12.5231 12.8419 12.4582 12.9249 12.4268 13.0208L12.1791 13.7292Z" fill="white"/>
</g>
<defs>
<linearGradient id="paint0_linear_97_227" x1="15.5" y1="0" x2="15.5" y2="31" gradientUnits="userSpaceOnUse">
<stop stop-color="#A6F2FF"/>
<stop offset="1" stop-color="#00C4E7"/>
</linearGradient>
<clipPath id="clip0_97_227">
<rect width="20" height="17" fill="white" transform="translate(6 7)"/>
</clipPath>
</defs>
</svg>
