<svg width="31" height="31" viewBox="0 0 31 31" fill="none" xmlns="http://www.w3.org/2000/svg">
<circle cx="15.5" cy="15.5" r="15.5" fill="url(#paint0_linear_92_129)"/>
<path d="M22.1422 8.85711V24.3571H8.85645V8.85711H13.285C13.285 8.55149 13.3427 8.26606 13.458 8.0008C13.5733 7.73555 13.7319 7.49913 13.9337 7.29154C14.1356 7.08395 14.3691 6.92537 14.6343 6.81581C14.8996 6.70625 15.1879 6.64859 15.4993 6.64282C15.8049 6.64282 16.0904 6.70049 16.3556 6.81581C16.6209 6.93114 16.8573 7.08972 17.0649 7.29154C17.2725 7.49336 17.431 7.7269 17.5406 7.99215C17.6502 8.25741 17.7078 8.54572 17.7136 8.85711H22.1422ZM12.1779 11.0714H18.8207V9.96425H16.6064V8.85711C16.6064 8.70142 16.5776 8.55726 16.5199 8.42463C16.4623 8.292 16.3844 8.17668 16.2864 8.07865C16.1884 7.98062 16.0702 7.89989 15.9318 7.83646C15.7934 7.77303 15.6492 7.7442 15.4993 7.74997C15.3436 7.74997 15.1995 7.7788 15.0668 7.83646C14.9342 7.89412 14.8189 7.97197 14.7208 8.07C14.6228 8.16803 14.5421 8.28624 14.4787 8.42463C14.4152 8.56302 14.3864 8.70718 14.3922 8.85711V9.96425H12.1779V11.0714ZM20.715 14.7821L19.5386 13.6057L13.8386 19.3058L11.46 16.9271L10.2836 18.1035L13.8386 21.6584L20.715 14.7821Z" fill="#FAFEFF"/>
<defs>
<linearGradient id="paint0_linear_92_129" x1="15.5" y1="0" x2="15.5" y2="31" gradientUnits="userSpaceOnUse">
<stop stop-color="#A6F2FF"/>
<stop offset="1" stop-color="#00C4E7"/>
</linearGradient>
</defs>
</svg>
