<svg width="70" height="70" viewBox="0 0 70 70" fill="none" xmlns="http://www.w3.org/2000/svg">
<g filter="url(#filter0_i_354_3)">
<circle cx="35" cy="35" r="34.5" fill="url(#paint0_linear_354_3)" stroke="white"/>
<path d="M38.0315 31.5949C38.8712 30.7539 39.291 29.7433 39.291 28.5632C39.291 27.3831 38.8712 26.3733 38.0315 25.5336C37.1919 24.694 36.1813 24.2735 34.9998 24.272C33.8183 24.2706 32.8084 24.6911 31.9702 25.5336C31.132 26.3761 30.7115 27.386 30.7086 28.5632C30.7057 29.7404 31.1263 30.751 31.9702 31.5949C32.8142 32.4389 33.824 32.8587 34.9998 32.8544C36.1756 32.8501 37.1862 32.4303 38.0315 31.5949ZM24.2718 32.4253V24.272H19.9806V26.4176C19.9806 27.7765 20.374 29.0016 21.1607 30.093C21.9474 31.1844 22.9845 31.9618 24.2718 32.4253ZM45.7278 32.4253C47.0151 31.9604 48.0522 31.1823 48.8389 30.0909C49.6256 28.9995 50.019 27.7751 50.019 26.4176V24.272H45.7278V32.4253ZM32.8542 50.0191V43.3678C31.102 42.9744 29.5378 42.2328 28.1618 41.1428C26.7857 40.0529 25.7752 38.6847 25.1301 37.0383C22.4481 36.7165 20.2045 35.5457 18.3993 33.526C16.5942 31.5063 15.6909 29.1368 15.6895 26.4176V24.272C15.6895 23.092 16.11 22.0821 16.9511 21.2425C17.7921 20.4028 18.802 19.9823 19.9806 19.9809H24.2718C24.2718 18.8008 24.6924 17.7909 25.5334 16.9513C26.3745 16.1116 27.3844 15.6911 28.563 15.6897H41.4366C42.6167 15.6897 43.6272 16.1102 44.4683 16.9513C45.3094 17.7923 45.7292 18.8022 45.7278 19.9809H50.019C51.199 19.9809 52.2096 20.4014 53.0507 21.2425C53.8917 22.0835 54.3116 23.0934 54.3101 24.272V26.4176C54.3101 29.1354 53.4068 31.5048 51.6003 33.526C49.7937 35.5471 47.5501 36.7179 44.8695 37.0383C44.2258 38.6833 43.216 40.0514 41.8399 41.1428C40.4639 42.2342 38.8991 42.9759 37.1454 43.3678V50.0191H43.5822C44.1901 50.0191 44.7 50.2251 45.112 50.6371C45.5239 51.049 45.7292 51.5582 45.7278 52.1647C45.7263 52.7712 45.5204 53.2812 45.1098 53.6945C44.6993 54.1079 44.1901 54.3132 43.5822 54.3103H26.4174C25.8095 54.3103 25.3003 54.1044 24.8898 53.6924C24.4792 53.2804 24.2733 52.7712 24.2718 52.1647C24.2704 51.5582 24.4764 51.049 24.8898 50.6371C25.3031 50.2251 25.8124 50.0191 26.4174 50.0191H32.8542Z" fill="#FAFEFF"/>
</g>
<defs>
<filter id="filter0_i_354_3" x="0" y="0" width="70" height="74" filterUnits="userSpaceOnUse" color-interpolation-filters="sRGB">
<feFlood flood-opacity="0" result="BackgroundImageFix"/>
<feBlend mode="normal" in="SourceGraphic" in2="BackgroundImageFix" result="shape"/>
<feColorMatrix in="SourceAlpha" type="matrix" values="0 0 0 0 0 0 0 0 0 0 0 0 0 0 0 0 0 0 127 0" result="hardAlpha"/>
<feOffset dy="4"/>
<feGaussianBlur stdDeviation="2"/>
<feComposite in2="hardAlpha" operator="arithmetic" k2="-1" k3="1"/>
<feColorMatrix type="matrix" values="0 0 0 0 0.564102 0 0 0 0 0.564102 0 0 0 0 0.564102 0 0 0 0.25 0"/>
<feBlend mode="normal" in2="shape" result="effect1_innerShadow_354_3"/>
</filter>
<linearGradient id="paint0_linear_354_3" x1="35" y1="0" x2="35" y2="70" gradientUnits="userSpaceOnUse">
<stop stop-color="#47DFFA"/>
<stop offset="1" stop-color="#00879F"/>
</linearGradient>
</defs>
</svg>
