<svg width="58" height="58" viewBox="0 0 58 58" fill="none" xmlns="http://www.w3.org/2000/svg">
<circle cx="28.5411" cy="28.5411" r="28.1151" fill="#00B5D5" fill-opacity="0.2" stroke="#00879F" stroke-width="0.851973"/>
<g filter="url(#filter0_d_518_726)">
<g clip-path="url(#clip0_518_726)">
<path d="M16.8181 48.0001C16.2582 48.0001 15.7213 47.7777 15.3254 47.3818C14.9295 46.9859 14.707 46.4489 14.707 45.889V13.1668C14.707 12.6069 14.9295 12.0699 15.3254 11.674C15.7213 11.2781 16.2582 11.0557 16.8181 11.0557C17.378 11.0557 17.915 11.2781 18.3109 11.674C18.7068 12.0699 18.9293 12.6069 18.9293 13.1668V45.889C18.9293 46.4489 18.7068 46.9859 18.3109 47.3818C17.915 47.7777 17.378 48.0001 16.8181 48.0001Z" fill="#8899A6"/>
<path d="M16.8181 11.0557C16.2582 11.0557 15.7213 11.2781 15.3254 11.674C14.9295 12.0699 14.707 12.6069 14.707 13.1668V45.889C14.707 46.029 14.7626 46.1632 14.8616 46.2622C14.9606 46.3612 15.0948 46.4168 15.2348 46.4168C15.3748 46.4168 15.509 46.3612 15.608 46.2622C15.707 46.1632 15.7626 46.029 15.7626 45.889V14.6593C15.7626 13.8349 16.4308 13.1668 17.2551 13.1668H18.9293C18.9293 12.6069 18.7068 12.0699 18.3109 11.674C17.915 11.2781 17.378 11.0557 16.8181 11.0557Z" fill="#AAB8C2"/>
<path d="M16.8181 48.0001C16.2582 48.0001 15.7213 47.7777 15.3254 47.3818C14.9295 46.9859 14.707 46.4489 14.707 45.889V13.1668C14.707 12.6069 14.9295 12.0699 15.3254 11.674C15.7213 11.2781 16.2582 11.0557 16.8181 11.0557C17.378 11.0557 17.915 11.2781 18.3109 11.674C18.7068 12.0699 18.9293 12.6069 18.9293 13.1668V45.889C18.9293 46.4489 18.7068 46.9859 18.3109 47.3818C17.915 47.7777 17.378 48.0001 16.8181 48.0001Z" fill="#8899A6"/>
<path d="M16.8181 11.0557C16.2582 11.0557 15.7213 11.2781 15.3254 11.674C14.9295 12.0699 14.707 12.6069 14.707 13.1668V45.889C14.707 46.029 14.7626 46.1632 14.8616 46.2622C14.9606 46.3612 15.0948 46.4168 15.2348 46.4168C15.3748 46.4168 15.509 46.3612 15.608 46.2622C15.707 46.1632 15.7626 46.029 15.7626 45.889V14.6593C15.7626 13.8349 16.4308 13.1668 17.2551 13.1668H18.9293C18.9293 12.6069 18.7068 12.0699 18.3109 11.674C17.915 11.2781 17.378 11.0557 16.8181 11.0557Z" fill="#AAB8C2"/>
<path d="M45.7374 13.2531C43.981 12.4941 42.1095 12.1173 40.0417 12.0835L38.5903 12.4846L33.7083 13.1665L32.6528 13.0314L31.9023 13.1897C29.6128 13.6848 27.4373 14.1334 25.2639 14.2263L24.2083 15.2776L17.875 14.2221V34.2776H24.2083L25.2639 36.3887H25.3452C27.7138 36.2874 30.0656 35.8018 32.3467 35.3099L32.6528 35.2456L33.3347 34.5647L39.0748 33.8174L40.0417 34.2502C41.815 34.2839 43.4121 34.6038 44.9014 35.2466C45.062 35.3159 45.2373 35.3441 45.4114 35.3289C45.5856 35.3136 45.7533 35.2554 45.8994 35.1593C46.0455 35.0632 46.1655 34.9324 46.2485 34.7785C46.3315 34.6246 46.375 34.4525 46.375 34.2776V14.2221C46.3749 14.0159 46.3145 13.8143 46.2013 13.6421C46.088 13.4699 45.9267 13.3347 45.7374 13.2531Z" fill="#31373D"/>
<path d="M25.2639 14.2263C25.0116 14.2369 24.7593 14.2633 24.5071 14.2633C22.6102 14.2633 20.9224 13.9329 19.3486 13.2531C19.1882 13.183 19.0129 13.1543 18.8386 13.1697C18.6643 13.185 18.4967 13.2438 18.3511 13.3407C18.2049 13.4367 18.0849 13.5675 18.0018 13.7213C17.9187 13.8752 17.8751 14.0473 17.875 14.2221V20.5554C17.875 20.5554 21.3499 21.611 25.2639 21.611V14.2263ZM32.6528 20.5554C32.6528 20.5554 28.6944 21.611 25.2639 21.611V28.9999C28.4306 28.9999 32.6528 27.9443 32.6528 27.9443V20.5554ZM40.0417 19.4999V12.0835C39.9403 12.0814 39.8453 12.0698 39.7429 12.0698C37.35 12.0698 34.9708 12.5364 32.6528 13.0314V20.5554C32.6528 20.5554 34.9402 19.4999 40.0417 19.4999ZM18.5126 35.2467C20.0959 35.9307 21.7742 36.2948 23.6003 36.3888H25.2639V28.9999C20.8654 28.9999 17.875 27.9443 17.875 27.9443V34.2777C17.8751 34.4838 17.9355 34.6854 18.0487 34.8576C18.162 35.0298 18.3233 35.165 18.5126 35.2467ZM32.6528 27.9443V35.2445C35.0943 34.7178 37.4144 34.2365 39.7429 34.2365C39.8453 34.2365 39.9403 34.2481 40.0417 34.2502V26.8888C35.2917 26.8888 32.6528 27.9443 32.6528 27.9443ZM40.0417 26.8888C42.8663 26.8888 45.1294 27.4799 46.375 27.8958V20.4583C45.1643 20.0562 42.9645 19.4999 40.0417 19.4999V26.8888Z" fill="#E1E8ED"/>
</g>
</g>
<defs>
<filter id="filter0_d_518_726" x="7.54102" y="10" width="46" height="46" filterUnits="userSpaceOnUse" color-interpolation-filters="sRGB">
<feFlood flood-opacity="0" result="BackgroundImageFix"/>
<feColorMatrix in="SourceAlpha" type="matrix" values="0 0 0 0 0 0 0 0 0 0 0 0 0 0 0 0 0 0 127 0" result="hardAlpha"/>
<feOffset dy="4"/>
<feGaussianBlur stdDeviation="2"/>
<feComposite in2="hardAlpha" operator="out"/>
<feColorMatrix type="matrix" values="0 0 0 0 0.961538 0 0 0 0 0.961538 0 0 0 0 0.961538 0 0 0 0.25 0"/>
<feBlend mode="normal" in2="BackgroundImageFix" result="effect1_dropShadow_518_726"/>
<feBlend mode="normal" in="SourceGraphic" in2="effect1_dropShadow_518_726" result="shape"/>
</filter>
<clipPath id="clip0_518_726">
<rect width="38" height="38" fill="white" transform="translate(11.541 10)"/>
</clipPath>
</defs>
</svg>
