<svg width="31" height="31" viewBox="0 0 31 31" fill="none" xmlns="http://www.w3.org/2000/svg">
<circle cx="15.5" cy="15.5" r="15.5" fill="url(#paint0_linear_97_218)"/>
<path d="M22.0051 13.3641H25.5051V15.3641H22.0051V13.3641ZM22.0551 12.1941L23.5551 11.1941L25.0551 10.1941L24.5051 9.36411L23.9551 8.53411L22.4551 9.53411L20.9551 10.5341L21.5051 11.3641L22.0551 12.1941ZM22.0551 16.5341L21.5051 17.3641L20.9551 18.1941L22.4551 19.1941L23.9551 20.1941L24.5051 19.3641L25.0551 18.5341L23.5551 17.5341L22.0551 16.5341ZM18.5051 11.5441V7.36411C18.5051 6.99411 18.3051 6.65411 17.9751 6.48411C17.6551 6.31411 17.2551 6.32411 16.9451 6.53411L11.1951 10.3641H9.49512C7.28512 10.3641 5.49512 12.1541 5.49512 14.3641C5.49512 15.8841 6.35512 17.1841 7.59512 17.8641L9.53512 24.6341L11.4551 24.0841L9.81512 18.3541H11.1851L16.9351 22.1841C17.1051 22.2941 17.2951 22.3541 17.4851 22.3541C17.6451 22.3541 17.8051 22.3141 17.9551 22.2341C18.2851 22.0641 18.4851 21.7241 18.4851 21.3541V17.1741C19.6451 16.7641 20.4851 15.6641 20.4851 14.3541C20.4851 13.0441 19.6451 11.9541 18.4851 11.5341L18.5051 11.5441Z" fill="#FAFEFF"/>
<defs>
<linearGradient id="paint0_linear_97_218" x1="15.5" y1="0" x2="15.5" y2="31" gradientUnits="userSpaceOnUse">
<stop stop-color="#A6F2FF"/>
<stop offset="1" stop-color="#00C4E7"/>
</linearGradient>
</defs>
</svg>
