<svg width="70" height="70" viewBox="0 0 70 70" fill="none" xmlns="http://www.w3.org/2000/svg">
<g filter="url(#filter0_i_354_27)">
<circle cx="35" cy="35" r="34.5" fill="url(#paint0_linear_354_27)" stroke="white"/>
<path d="M28.3906 34.5C31.1089 34.5 33.3125 32.2964 33.3125 29.5781C33.3125 26.8598 31.1089 24.6562 28.3906 24.6562C25.6723 24.6562 23.4688 26.8598 23.4688 29.5781C23.4688 32.2964 25.6723 34.5 28.3906 34.5Z" fill="#FAFEFF"/>
<path d="M33.9961 37.2343C32.0711 36.2568 29.9465 35.8672 28.3906 35.8672C25.3432 35.8672 19.0938 37.7361 19.0938 41.4726V44.3437H29.3477V43.2452C29.3477 41.9464 29.8945 40.6441 30.8516 39.5586C31.6151 38.6918 32.6843 37.8872 33.9961 37.2343Z" fill="#FAFEFF"/>
<path d="M41.2422 36.6875C37.6827 36.6875 30.5781 38.8859 30.5781 43.25V46.5312H51.9062V43.25C51.9062 38.8859 44.8017 36.6875 41.2422 36.6875Z" fill="#FAFEFF"/>
<path d="M41.2422 34.5C44.5645 34.5 47.2578 31.8067 47.2578 28.4843C47.2578 25.162 44.5645 22.4687 41.2422 22.4687C37.9198 22.4687 35.2266 25.162 35.2266 28.4843C35.2266 31.8067 37.9198 34.5 41.2422 34.5Z" fill="#FAFEFF"/>
</g>
<defs>
<filter id="filter0_i_354_27" x="0" y="0" width="70" height="74" filterUnits="userSpaceOnUse" color-interpolation-filters="sRGB">
<feFlood flood-opacity="0" result="BackgroundImageFix"/>
<feBlend mode="normal" in="SourceGraphic" in2="BackgroundImageFix" result="shape"/>
<feColorMatrix in="SourceAlpha" type="matrix" values="0 0 0 0 0 0 0 0 0 0 0 0 0 0 0 0 0 0 127 0" result="hardAlpha"/>
<feOffset dy="4"/>
<feGaussianBlur stdDeviation="2"/>
<feComposite in2="hardAlpha" operator="arithmetic" k2="-1" k3="1"/>
<feColorMatrix type="matrix" values="0 0 0 0 0.564102 0 0 0 0 0.564102 0 0 0 0 0.564102 0 0 0 0.25 0"/>
<feBlend mode="normal" in2="shape" result="effect1_innerShadow_354_27"/>
</filter>
<linearGradient id="paint0_linear_354_27" x1="35" y1="0" x2="35" y2="70" gradientUnits="userSpaceOnUse">
<stop stop-color="#47DFFA"/>
<stop offset="1" stop-color="#00879F"/>
</linearGradient>
</defs>
</svg>
