<svg width="31" height="31" viewBox="0 0 31 31" fill="none" xmlns="http://www.w3.org/2000/svg">
<circle cx="15.5" cy="15.5" r="15.5" fill="url(#paint0_linear_97_145)"/>
<path fill-rule="evenodd" clip-rule="evenodd" d="M24.192 6.27059C23.8951 4.8608 22.64 3.93191 21.2116 4.00391C19.8511 4.07235 17.7316 4.23058 14.7534 4.59236C11.7756 4.95369 9.68006 5.30747 8.34317 5.56614C6.93829 5.83858 5.94585 7.04259 6.00229 8.4826C6.0214 8.97327 6.05385 9.56305 6.1054 10.2564C6.50407 8.72438 7.84051 7.64526 9.42317 7.53593C10.8129 7.43948 13.1045 7.33326 16.4445 7.33326C19.7845 7.33326 22.076 7.43992 23.4658 7.53593C23.8115 7.55965 24.1523 7.63084 24.4787 7.74748C24.3762 7.17859 24.2806 6.68629 24.192 6.27059ZM16.4445 24C13.128 24 10.8623 23.8942 9.49961 23.8C8.24628 23.7133 7.23295 22.7751 7.10851 21.5004C6.99873 20.3782 6.88895 18.6484 6.88895 16.2222C6.88895 13.796 6.99873 12.0662 7.10851 10.9439C7.23295 9.66927 8.24628 8.7306 9.49961 8.64437C10.8618 8.55015 13.128 8.44437 16.4445 8.44437C19.7609 8.44437 22.0267 8.55015 23.3893 8.64437C24.6427 8.73104 25.656 9.66927 25.7804 10.9439C25.8902 12.0662 26 13.796 26 16.2222C26 18.6484 25.8902 20.3782 25.7804 21.5004C25.656 22.7751 24.6427 23.7138 23.3893 23.8C22.0271 23.8942 19.7609 24 16.4445 24ZM10.2223 11.5555C10.0455 11.5555 9.8759 11.6257 9.75087 11.7508C9.62585 11.8758 9.55561 12.0454 9.55561 12.2222C9.55561 12.399 9.62585 12.5686 9.75087 12.6936C9.8759 12.8186 10.0455 12.8888 10.2223 12.8888H13.7778C13.9546 12.8888 14.1242 12.8186 14.2492 12.6936C14.3742 12.5686 14.4445 12.399 14.4445 12.2222C14.4445 12.0454 14.3742 11.8758 14.2492 11.7508C14.1242 11.6257 13.9546 11.5555 13.7778 11.5555H10.2223ZM10.2223 16.8889C10.0455 16.8889 9.8759 16.9591 9.75087 17.0841C9.62585 17.2091 9.55561 17.3787 9.55561 17.5555C9.55561 17.7323 9.62585 17.9019 9.75087 18.0269C9.8759 18.152 10.0455 18.2222 10.2223 18.2222H13.7778C13.9546 18.2222 14.1242 18.152 14.2492 18.0269C14.3742 17.9019 14.4445 17.7323 14.4445 17.5555C14.4445 17.3787 14.3742 17.2091 14.2492 17.0841C14.1242 16.9591 13.9546 16.8889 13.7778 16.8889H10.2223ZM9.55561 20.2222C9.55561 20.0454 9.62585 19.8758 9.75087 19.7508C9.8759 19.6258 10.0455 19.5555 10.2223 19.5555H22.6667C22.8435 19.5555 23.0131 19.6258 23.1381 19.7508C23.2631 19.8758 23.3333 20.0454 23.3333 20.2222C23.3333 20.399 23.2631 20.5686 23.1381 20.6936C23.0131 20.8186 22.8435 20.8889 22.6667 20.8889H10.2223C10.0455 20.8889 9.8759 20.8186 9.75087 20.6936C9.62585 20.5686 9.55561 20.399 9.55561 20.2222ZM10.2223 14.2222C10.0455 14.2222 9.8759 14.2924 9.75087 14.4174C9.62585 14.5425 9.55561 14.712 9.55561 14.8888C9.55561 15.0657 9.62585 15.2352 9.75087 15.3603C9.8759 15.4853 10.0455 15.5555 10.2223 15.5555H13.7778C13.9546 15.5555 14.1242 15.4853 14.2492 15.3603C14.3742 15.2352 14.4445 15.0657 14.4445 14.8888C14.4445 14.712 14.3742 14.5425 14.2492 14.4174C14.1242 14.2924 13.9546 14.2222 13.7778 14.2222H10.2223ZM19.5556 18.2222C18.6756 18.2222 18.0058 18.1955 17.5254 18.1644C17.2007 18.147 16.8939 18.0102 16.6639 17.7804C16.434 17.5505 16.2971 17.2438 16.2796 16.9191C16.239 16.2431 16.2199 15.566 16.2223 14.8888C16.2223 14.0088 16.2489 13.3391 16.28 12.8586C16.2974 12.5339 16.4342 12.2271 16.6641 11.9972C16.8939 11.7672 17.2007 11.6303 17.5254 11.6128C18.0058 11.5817 18.6751 11.5555 19.5556 11.5555C20.436 11.5555 21.1053 11.5822 21.5858 11.6133C21.9105 11.6307 22.2173 11.7675 22.4472 11.9973C22.6772 12.2272 22.8141 12.5339 22.8316 12.8586C22.8627 13.3391 22.8889 14.0084 22.8889 14.8888C22.8889 15.7693 22.8622 16.4386 22.8311 16.9191C22.8137 17.2438 22.6769 17.5506 22.4471 17.7805C22.2172 18.0105 21.9105 18.1473 21.5858 18.1649C21.1053 18.196 20.436 18.2222 19.5556 18.2222Z" fill="#FAFEFF"/>
<defs>
<linearGradient id="paint0_linear_97_145" x1="15.5" y1="0" x2="15.5" y2="31" gradientUnits="userSpaceOnUse">
<stop stop-color="#A6F2FF"/>
<stop offset="1" stop-color="#00C4E7"/>
</linearGradient>
</defs>
</svg>
